Coordinates
version=1
nRows=16
nColumns=63
inDegrees=yes

Units are S.I. units (second, meters, Newtons, ...)
If the header above contains a line with 'inDegrees', this indicates whether rotational values are in degrees (yes) or radians (no).

endheader
time	pelvis_tilt	pelvis_list	pelvis_rotation	pelvis_tx	pelvis_ty	pelvis_tz	hip_flexion_r	hip_adduction_r	hip_rotation_r	knee_angle_r	knee_angle_r_beta	ankle_angle_r	subtalar_angle_r	mtp_angle_r	hip_flexion_l	hip_adduction_l	hip_rotation_l	knee_angle_l	knee_angle_l_beta	ankle_angle_l	subtalar_angle_l	mtp_angle_l	L5_S1_Flex_Ext	L5_S1_Lat_Bending	L5_S1_axial_rotation	L4_L5_Flex_Ext	L4_L5_Lat_Bending	L4_L5_axial_rotation	L3_L4_Flex_Ext	L3_L4_Lat_Bending	L3_L4_axial_rotation	L2_L3_Flex_Ext	L2_L3_Lat_Bending	L2_L3_axial_rotation	L1_L2_Flex_Ext	L1_L2_Lat_Bending	L1_L2_axial_rotation	L1_T12_Flex_Ext	L1_T12_Lat_Bending	L1_T12_axial_rotation	Abs_r3	Abs_r2	Abs_r1	Abs_t1	Abs_t2	neck_flexion	neck_bending	neck_rotation	arm_flex_r	arm_add_r	arm_rot_r	elbow_flex_r	pro_sup_r	wrist_flex_r	wrist_dev_r	arm_flex_l	arm_add_l	arm_rot_l	elbow_flex_l	pro_sup_l	wrist_flex_l	wrist_dev_l
0.000000	1.268914	-3.668702	99.714589	0.245229	0.690633	0.859937	5.328931	2.641443	-3.014075	14.395443	0.251248	30.040502	-4.681482	0.000000	5.070743	0.029163	0.392839	10.544027	0.184028	34.794232	2.063974	0.000000	0.023936	0.408282	-0.284137	0.044451	0.543015	-0.301896	0.039324	0.992697	-0.301896	0.027356	0.992697	-0.248620	0.022227	0.832569	-0.230861	0.013677	0.632429	-0.213103	0.170970	4.618569	-1.580286	0.000000	0.000000	10.741289	-3.322786	5.828631	14.081377	-15.063252	58.470649	56.804747	72.596208	3.217092	7.958700	18.428891	-16.263280	67.234808	57.134834	25.673994	-1.191546	6.950054
0.022222	1.046289	-3.507145	100.019446	0.245095	0.690773	0.857784	4.775644	2.321730	-4.197129	14.124239	0.246514	30.617141	-2.500237	0.000000	4.611495	0.199621	0.788683	10.381975	0.181200	34.627201	2.235398	0.000000	0.032041	0.378773	-0.284126	0.059504	0.503768	-0.301884	0.052641	0.920948	-0.301884	0.036620	0.920948	-0.248611	0.029754	0.772394	-0.230853	0.018308	0.586719	-0.213095	0.228868	4.284755	-1.580226	0.000000	0.000000	10.544900	-3.327972	5.465069	13.698305	-15.529971	59.038295	57.080765	70.101246	3.193732	8.214199	19.012310	-16.403597	68.978828	57.495549	23.647095	-2.344542	6.848423
0.044444	0.863319	-3.404750	100.248196	0.245020	0.690840	0.855912	4.341165	2.067644	-5.043133	13.897405	0.242555	31.036639	-0.920061	0.000000	4.257523	0.347442	1.093987	10.263112	0.179125	34.473489	2.290183	0.000000	0.038253	0.354190	-0.285279	0.071040	0.471073	-0.303109	0.062846	0.861178	-0.303109	0.043720	0.861178	-0.249619	0.035522	0.722264	-0.231789	0.021858	0.548640	-0.213960	0.273239	4.006669	-1.586638	0.000000	0.000000	10.529452	-3.363802	5.167670	13.456450	-15.895956	59.598087	57.268314	67.878605	3.187776	8.464486	19.417466	-16.565546	70.239050	57.852192	22.098176	-3.271981	6.796187
0.066667	0.716491	-3.357137	100.407894	0.244996	0.690839	0.854313	4.017959	1.872119	-5.589592	13.713064	0.239338	31.315628	0.124796	0.000000	4.001916	0.475323	1.320393	10.183463	0.177735	34.331401	2.238457	0.000000	0.042807	0.334083	-0.287223	0.079497	0.444330	-0.305174	0.070328	0.812289	-0.305174	0.048924	0.812289	-0.251320	0.039751	0.681262	-0.233368	0.024460	0.517495	-0.215417	0.305767	3.779213	-1.597447	0.000000	0.000000	10.670272	-3.425873	4.929365	13.339346	-16.170294	60.141412	57.376777	65.907105	3.197601	8.706536	19.663712	-16.743687	71.062579	58.199569	20.990918	-3.991521	6.777263
0.088889	0.602294	-3.359927	100.505592	0.245015	0.690774	0.852976	3.798495	1.728089	-5.874012	13.569339	0.236830	31.470738	0.700083	0.000000	3.837760	0.585963	1.479545	10.139053	0.176960	34.199247	2.090348	0.000000	0.045938	0.318001	-0.289583	0.085311	0.422941	-0.307682	0.075472	0.773187	-0.307682	0.052503	0.773187	-0.253385	0.042658	0.648467	-0.235286	0.026249	0.492583	-0.217187	0.328131	3.597290	-1.610574	0.000000	0.000000	10.942686	-3.509787	4.743085	13.330527	-16.362068	60.659653	57.415534	64.165566	3.221581	8.937323	19.770398	-16.932579	71.496526	58.532490	20.289003	-4.520820	6.775569
0.111111	0.517215	-3.408740	100.548344	0.245068	0.690651	0.851894	3.675239	1.628487	-5.933899	13.464352	0.234997	31.518599	0.871548	0.000000	3.758143	0.682060	1.583086	10.125907	0.176730	34.075333	1.855986	0.000000	0.047881	0.305493	-0.291987	0.088921	0.406306	-0.310236	0.078665	0.742776	-0.310236	0.054724	0.742776	-0.255489	0.044463	0.622962	-0.237240	0.027359	0.473209	-0.218990	0.342013	3.455801	-1.623945	0.000000	0.000000	11.322021	-3.611140	4.601761	13.413527	-16.480366	61.144196	57.393967	62.632808	3.258092	9.153821	19.756877	-17.126782	71.587996	58.845763	19.956114	-4.877534	6.775023
0.133333	0.457744	-3.499197	100.543204	0.245146	0.690476	0.851056	3.640660	1.566247	-5.806759	13.396225	0.233808	31.475843	0.704939	0.000000	3.756154	0.766311	1.642657	10.140052	0.176977	33.957968	1.545498	0.000000	0.048873	0.296109	-0.294062	0.090762	0.393825	-0.312440	0.080293	0.719960	-0.312440	0.055857	0.719960	-0.257304	0.045383	0.603826	-0.238925	0.027926	0.458673	-0.220546	0.349095	3.349647	-1.635482	0.000000	0.000000	11.783603	-3.725534	4.498325	13.571879	-16.534271	61.586427	57.321457	61.287651	3.305509	9.353005	19.642501	-17.320855	71.384097	59.134197	19.955932	-5.079320	6.759544
0.155556	0.420367	-3.626916	100.497225	0.245241	0.690253	0.850453	3.687224	1.534304	-5.530097	13.363082	0.233230	31.359099	0.266007	0.000000	3.824880	0.841415	1.669903	10.177513	0.177631	33.845459	1.169014	0.000000	0.049148	0.289398	-0.295433	0.091272	0.384900	-0.313897	0.080745	0.703643	-0.313897	0.056171	0.703643	-0.258504	0.045639	0.590141	-0.240039	0.028083	0.448278	-0.221575	0.351058	3.273732	-1.643109	0.000000	0.000000	12.302761	-3.848566	4.425709	13.789116	-16.532871	61.977731	57.207386	60.108914	3.362207	9.531847	19.446620	-17.509358	70.931938	59.392600	20.252141	-5.143837	6.713048
0.177778	0.401573	-3.787519	100.417461	0.245344	0.689988	0.850076	3.807398	1.525591	-5.141419	13.363044	0.233229	31.184999	-0.379501	0.000000	3.957408	0.910070	1.676465	10.234315	0.178622	33.736113	0.736663	0.000000	0.048941	0.284910	-0.295728	0.090889	0.378930	-0.314211	0.080406	0.692730	-0.314211	0.055935	0.692730	-0.258762	0.045447	0.580988	-0.240279	0.027965	0.441325	-0.221796	0.349583	3.222956	-1.644749	0.000000	0.000000	12.854819	-3.975835	4.376842	14.048773	-16.485249	62.309492	57.061135	59.075416	3.426562	9.687322	19.188588	-17.686851	70.278626	59.615781	20.808422	-5.088741	6.619453
0.200000	0.397850	-3.976626	100.310965	0.245446	0.689686	0.849917	3.993650	1.533042	-4.678231	13.394233	0.233773	30.970173	-1.165836	0.000000	4.146826	0.974973	1.673986	10.306484	0.179882	33.628239	0.258571	0.000000	0.048489	0.282193	-0.294573	0.090049	0.375317	-0.312984	0.079663	0.686124	-0.312984	0.055418	0.686124	-0.257751	0.045027	0.575448	-0.239341	0.027707	0.437117	-0.220930	0.346353	3.192222	-1.638327	0.000000	0.000000	13.415105	-4.102942	4.344658	14.334384	-16.400492	62.573096	56.892085	58.165979	3.496949	9.816405	18.887755	-17.847892	69.471268	59.798548	21.588457	-4.931690	6.462678
0.222222	0.405687	-4.189857	100.184792	0.245538	0.689352	0.849964	4.238448	1.549592	-4.178039	13.454773	0.234830	30.731251	-2.027248	0.000000	4.386222	1.038823	1.674110	10.390045	0.181340	33.520143	-0.255130	0.000000	0.048026	0.280797	-0.291595	0.089190	0.373460	-0.309820	0.078903	0.682730	-0.309820	0.054889	0.682730	-0.255146	0.044597	0.572601	-0.236921	0.027442	0.434955	-0.218696	0.343048	3.176431	-1.621765	0.000000	0.000000	13.958946	-4.225484	4.322087	14.629481	-16.287685	62.759928	56.709619	57.359422	3.571744	9.916070	18.563474	-17.987041	68.556972	59.935710	22.555929	-4.690341	6.226641
0.244444	0.411927	-4.420874	100.036151	0.245593	0.688998	0.850266	4.543374	1.550455	-3.728302	13.553523	0.236554	30.521544	-2.767346	0.000000	4.678002	1.112697	1.675790	10.465597	0.182659	33.438578	-0.690831	0.000000	0.049750	0.278769	-0.286032	0.092391	0.370763	-0.303909	0.081735	0.677799	-0.303909	0.056860	0.677799	-0.250278	0.046198	0.568466	-0.232401	0.028427	0.431813	-0.214524	0.355362	3.153491	-1.590825	0.000000	0.000000	14.486044	-4.301279	4.229414	14.838416	-16.154966	62.809439	56.585223	56.925000	3.576118	9.861437	18.267031	-18.117504	67.716952	60.036712	23.652875	-4.361156	5.943455
0.266667	0.408145	-4.634267	99.886660	0.245633	0.688671	0.850828	4.858550	1.528805	-3.400700	13.688666	0.238912	30.336639	-3.334686	0.000000	4.973863	1.202564	1.715263	10.563972	0.184376	33.350955	-1.158201	0.000000	0.048586	0.276912	-0.271797	0.090228	0.368292	-0.288784	0.079821	0.673283	-0.288784	0.055529	0.673283	-0.237822	0.045117	0.564678	-0.220835	0.027762	0.428936	-0.203847	0.347043	3.132478	-1.511651	0.000000	0.000000	14.863945	-4.348336	4.180368	15.017225	-16.020777	62.703074	56.425107	56.474414	3.751712	9.864298	18.054933	-18.206176	66.968077	60.076867	24.653832	-3.949676	5.643446
0.288889	0.403895	-4.854887	99.720068	0.245639	0.688326	0.851568	5.207318	1.482570	-3.240287	13.856679	0.241845	30.210908	-3.606384	0.000000	5.283509	1.303794	1.837708	10.661497	0.186078	33.226002	-1.735907	0.000000	0.049366	0.276163	-0.253397	0.091677	0.367297	-0.269234	0.081103	0.671463	-0.269234	0.056420	0.671463	-0.221722	0.045841	0.563151	-0.205885	0.028207	0.427776	-0.190048	0.352613	3.124010	-1.409318	0.000000	0.000000	15.065476	-4.397697	4.178152	15.218334	-15.918718	62.664333	56.261396	55.667887	3.903228	9.868784	17.849562	-18.256022	66.256646	60.081745	25.503386	-3.536363	5.055023
0.311111	0.408940	-5.089967	99.581110	0.245552	0.687957	0.852474	5.588103	1.421559	-3.237109	14.033694	0.244934	30.139345	-3.646759	0.000000	5.620577	1.412077	2.082207	10.759241	0.187784	33.056137	-2.424516	0.000000	0.052138	0.276700	-0.234082	0.096826	0.368011	-0.248712	0.085658	0.672768	-0.248712	0.059589	0.672768	-0.204822	0.048415	0.564246	-0.190192	0.029792	0.428608	-0.175562	0.372417	3.130083	-1.301895	0.000000	0.000000	15.084027	-4.450413	4.169496	15.374874	-15.847947	62.532703	56.124638	54.780581	4.080210	9.863666	17.701891	-18.258480	65.702846	60.031021	26.153778	-3.222016	4.098886
0.333333	0.428798	-5.355370	99.467545	0.245383	0.687545	0.853495	6.015516	1.361576	-3.286951	14.210797	0.248025	30.100181	-3.595310	0.000000	5.995090	1.517144	2.400979	10.838070	0.189160	32.850280	-3.149034	0.000000	0.057480	0.278686	-0.218120	0.106746	0.370652	-0.231753	0.094434	0.677596	-0.231753	0.065694	0.677596	-0.190855	0.053376	0.568296	-0.177223	0.032844	0.431684	-0.163590	0.410573	3.152548	-1.213119	0.000000	0.000000	14.964173	-4.515931	4.175251	15.473718	-15.798588	62.286397	56.022063	53.960795	4.300839	9.797845	17.533897	-18.173961	65.017912	59.895709	27.119287	-2.850507	2.893950
